<?xml version="1.0" ?><svg viewBox="0 0 32 32" xmlns="http://www.w3.org/2000/svg"><defs><style>.cls-1{fill:#d8e1ef;}.cls-2{fill:#0593ff;}</style></defs><title/><g data-name="Card Yes" id="Card_Yes"><rect class="cls-1" height="18" rx="3" ry="3" width="26" x="2" y="6"/><rect class="cls-2" height="3" width="26" x="2" y="10"/><path class="cls-2" d="M10,20H7a1,1,0,0,1,0-2h3a1,1,0,0,1,0,2Z"/><path class="cls-2" d="M25,26a1,1,0,0,1-.71-.29l-2-2a1,1,0,0,1,1.42-1.42L25,23.59l3.29-3.3a1,1,0,0,1,1.42,1.42l-4,4A1,1,0,0,1,25,26Z"/></g></svg>