<svg xmlns="http://www.w3.org/2000/svg" height="40" viewBox="0 96 960 960" width="40"><path d="M480 936q-151 0-255.5-46.5T120 776V376q0-66 105.5-113T480 216q149 0 254.5 47T840 376v400q0 67-104.5 113.5T480 936Zm0-485q87 0 177.333-26.167Q747.667 398.666 768.667 367 747 336 656.833 309.333 566.667 282.666 480 282.666q-89 0-177.5 25.834Q214 334.333 190.666 367 214 400.333 301.833 425.667 389.667 451 480 451Zm-.667 209q42 0 83-4.333 41-4.334 78.5-12.834 37.501-8.5 71.334-20.833 33.833-12.333 61.167-27.667V450.999q-28 15.334-61.834 27.667-33.833 12.333-71.667 20.833-37.833 8.5-78.166 13.167-40.334 4.667-82.334 4.667T396 512.666q-41.333-4.667-78.833-13.167-37.501-8.5-70.834-20.833-33.333-12.333-59.667-27.667v143.334Q213 609.667 246 622q33 12.333 70.5 20.833 37.5 8.5 78.833 12.834 41.334 4.333 84 4.333ZM480 869.334q47.333 0 97.167-8 49.833-8 91.5-21.167Q710.334 827 739 810.833q28.667-16.166 34.334-33.166V661.666Q746 677 712.167 689t-71.334 20.5q-37.5 8.5-78.166 12.833-40.667 4.333-83.334 4.333-42.666 0-84-4.333Q354 718 316.5 709.5T246 689q-33-12-59.334-27.334v117.001q5 16.333 33.167 32.666Q248 827.667 290 840.5q42 12.834 92 20.834t98 8Z"/></svg>