<svg xmlns="http://www.w3.org/2000/svg" version="1.1" width="200px" height="200px" style="shape-rendering:geometricPrecision; text-rendering:geometricPrecision; image-rendering:optimizeQuality; fill-rule:evenodd; clip-rule:evenodd" xmlns:xlink="http://www.w3.org/1999/xlink">
<g><path style="opacity:1" fill="#fefefe" d="M -0.5,-0.5 C 66.1667,-0.5 132.833,-0.5 199.5,-0.5C 199.5,66.1667 199.5,132.833 199.5,199.5C 132.833,199.5 66.1667,199.5 -0.5,199.5C -0.5,132.833 -0.5,66.1667 -0.5,-0.5 Z"/></g>
<g><path style="opacity:1" fill="#fc240b" d="M 68.5,39.5 C 68.6567,40.8734 68.49,42.2068 68,43.5C 64.2974,46.8675 60.964,50.5342 58,54.5C 56.6439,55.3802 55.1439,55.7135 53.5,55.5C 50.999,43.003 55.999,37.6696 68.5,39.5 Z"/></g>
<g><path style="opacity:1" fill="#ef2a1d" d="M 68.5,39.5 C 71.5,40.5 73.5,42.5 74.5,45.5C 74.5,46.8333 74.5,48.1667 74.5,49.5C 73.448,49.3505 72.448,49.5172 71.5,50C 68.8333,53 66.1667,56 63.5,59C 62.255,59.7914 60.9217,60.2914 59.5,60.5C 56.9108,59.5806 54.9108,57.914 53.5,55.5C 55.1439,55.7135 56.6439,55.3802 58,54.5C 60.964,50.5342 64.2974,46.8675 68,43.5C 68.49,42.2068 68.6567,40.8734 68.5,39.5 Z"/></g>
<g><path style="opacity:1" fill="#a74b7d" d="M 102.5,49.5 C 107.167,49.5 111.833,49.5 116.5,49.5C 116.5,51.1667 116.5,52.8333 116.5,54.5C 115.761,54.369 115.094,54.5357 114.5,55C 109.685,60.6496 104.685,66.1496 99.5,71.5C 97.604,72.4656 95.604,72.7989 93.5,72.5C 93.5,72.1667 93.5,71.8333 93.5,71.5C 99.226,64.5956 105.226,57.7623 111.5,51C 108.305,50.8195 105.305,50.3195 102.5,49.5 Z"/></g>
<g><path style="opacity:1" fill="#e53531" d="M 74.5,45.5 C 76.4673,57.5327 71.4673,62.5327 59.5,60.5C 60.9217,60.2914 62.255,59.7914 63.5,59C 66.1667,56 68.8333,53 71.5,50C 72.448,49.5172 73.448,49.3505 74.5,49.5C 74.5,48.1667 74.5,46.8333 74.5,45.5 Z"/></g>
<g><path style="opacity:1" fill="#b3456d" d="M 102.5,49.5 C 105.305,50.3195 108.305,50.8195 111.5,51C 105.226,57.7623 99.226,64.5956 93.5,71.5C 93.5,64.1667 93.5,56.8333 93.5,49.5C 96.5,49.5 99.5,49.5 102.5,49.5 Z"/></g>
<g><path style="opacity:1" fill="#815ba7" d="M 123.5,49.5 C 131.352,49.1746 139.018,49.508 146.5,50.5C 144.801,50.3398 143.134,50.5065 141.5,51C 142.5,51.3333 143.5,51.6667 144.5,52C 137.702,57.2989 131.702,63.4655 126.5,70.5C 125.675,71.3857 124.675,71.719 123.5,71.5C 123.5,64.1667 123.5,56.8333 123.5,49.5 Z"/></g>
<g><path style="opacity:1" fill="#6f5fb7" d="M 146.5,50.5 C 146.5,53.1667 146.5,55.8333 146.5,58.5C 141.935,64.7527 136.268,69.4194 129.5,72.5C 127.265,72.7947 125.265,72.4614 123.5,71.5C 124.675,71.719 125.675,71.3857 126.5,70.5C 131.702,63.4655 137.702,57.2989 144.5,52C 143.5,51.6667 142.5,51.3333 141.5,51C 143.134,50.5065 144.801,50.3398 146.5,50.5 Z"/></g>
<g><path style="opacity:1" fill="#9c5690" d="M 116.5,54.5 C 116.5,60.8333 116.5,67.1667 116.5,73.5C 108.648,73.8254 100.982,73.492 93.5,72.5C 95.604,72.7989 97.604,72.4656 99.5,71.5C 104.685,66.1496 109.685,60.6496 114.5,55C 115.094,54.5357 115.761,54.369 116.5,54.5 Z"/></g>
<g><path style="opacity:1" fill="#5c64c7" d="M 146.5,58.5 C 146.5,63.1667 146.5,67.8333 146.5,72.5C 140.833,72.5 135.167,72.5 129.5,72.5C 136.268,69.4194 141.935,64.7527 146.5,58.5 Z"/></g>
<g><path style="opacity:1" fill="#aeabdd" d="M 123.5,49.5 C 123.5,56.8333 123.5,64.1667 123.5,71.5C 125.265,72.4614 127.265,72.7947 129.5,72.5C 135.167,72.5 140.833,72.5 146.5,72.5C 138.684,73.4924 130.684,73.8257 122.5,73.5C 122.174,65.3159 122.508,57.3159 123.5,49.5 Z"/></g>
<g><path style="opacity:1" fill="#b84368" d="M 76.5,79.5 C 77.6085,80.29 78.9419,80.79 80.5,81C 74.944,86.7243 69.2774,92.2243 63.5,97.5C 63.5,91.5 63.5,85.5 63.5,79.5C 67.8333,79.5 72.1667,79.5 76.5,79.5 Z"/></g>
<g><path style="opacity:1" fill="#8359a4" d="M 116.5,80.5 C 108.432,85.846 100.765,92.846 93.5,101.5C 93.5,94.1667 93.5,86.8333 93.5,79.5C 101.352,79.1746 109.018,79.508 116.5,80.5 Z"/></g>
<g><path style="opacity:1" fill="#ac4875" d="M 76.5,79.5 C 79.8333,79.5 83.1667,79.5 86.5,79.5C 86.5,79.8333 86.5,80.1667 86.5,80.5C 80.0891,87.0845 73.7557,93.9179 67.5,101C 68.056,101.383 68.3893,101.883 68.5,102.5C 66.8333,102.5 65.1667,102.5 63.5,102.5C 63.5,100.833 63.5,99.1667 63.5,97.5C 69.2774,92.2243 74.944,86.7243 80.5,81C 78.9419,80.79 77.6085,80.29 76.5,79.5 Z"/></g>
<g><path style="opacity:1" fill="#9c4d87" d="M 86.5,80.5 C 86.5,87.8333 86.5,95.1667 86.5,102.5C 80.5,102.5 74.5,102.5 68.5,102.5C 68.3893,101.883 68.056,101.383 67.5,101C 73.7557,93.9179 80.0891,87.0845 86.5,80.5 Z"/></g>
<g><path style="opacity:1" fill="#6162c3" d="M 116.5,84.5 C 116.5,90.5 116.5,96.5 116.5,102.5C 111.167,102.5 105.833,102.5 100.5,102.5C 101.952,101.698 103.618,101.198 105.5,101C 105.167,100.667 104.833,100.333 104.5,100C 109.226,95.1433 113.226,89.9766 116.5,84.5 Z"/></g>
<g><path style="opacity:1" fill="#755db2" d="M 116.5,80.5 C 116.5,81.8333 116.5,83.1667 116.5,84.5C 113.226,89.9766 109.226,95.1433 104.5,100C 104.833,100.333 105.167,100.667 105.5,101C 103.618,101.198 101.952,101.698 100.5,102.5C 97.9407,102.802 95.6074,102.468 93.5,101.5C 100.765,92.846 108.432,85.846 116.5,80.5 Z"/></g>
<g><path style="opacity:1" fill="#456bda" d="M 123.5,79.5 C 131.573,78.8682 139.24,79.5349 146.5,81.5C 138.577,86.5874 131.743,92.9208 126,100.5C 125.667,100.167 125.333,99.8333 125,99.5C 124.722,100.416 124.222,101.082 123.5,101.5C 123.5,94.1667 123.5,86.8333 123.5,79.5 Z"/></g>
<g><path style="opacity:1" fill="#2372ec" d="M 146.5,81.5 C 146.5,88.5 146.5,95.5 146.5,102.5C 138.648,102.825 130.982,102.492 123.5,101.5C 124.222,101.082 124.722,100.416 125,99.5C 125.333,99.8333 125.667,100.167 126,100.5C 131.743,92.9208 138.577,86.5874 146.5,81.5 Z"/></g>
<g><path style="opacity:1" fill="#ccacca" d="M 86.5,79.5 C 87.4924,87.3159 87.8257,95.3159 87.5,103.5C 79.3159,103.826 71.3159,103.492 63.5,102.5C 65.1667,102.5 66.8333,102.5 68.5,102.5C 74.5,102.5 80.5,102.5 86.5,102.5C 86.5,95.1667 86.5,87.8333 86.5,80.5C 86.5,80.1667 86.5,79.8333 86.5,79.5 Z"/></g>
<g><path style="opacity:1" fill="#9abef4" d="M 123.5,79.5 C 123.5,86.8333 123.5,94.1667 123.5,101.5C 130.982,102.492 138.648,102.825 146.5,102.5C 138.684,103.492 130.684,103.826 122.5,103.5C 122.174,95.3159 122.508,87.3159 123.5,79.5 Z"/></g>
<g><path style="opacity:1" fill="#0075f3" d="M 123.5,109.5 C 131.167,109.5 138.833,109.5 146.5,109.5C 146.5,117.167 146.5,124.833 146.5,132.5C 138.833,132.5 131.167,132.5 123.5,132.5C 123.5,124.833 123.5,117.167 123.5,109.5 Z"/></g>
<g><path style="opacity:1" fill="#88579f" d="M 83.5,109.5 C 77.4938,115.839 71.4938,122.173 65.5,128.5C 64.8728,129.417 64.5394,130.417 64.5,131.5C 64.5,131.833 64.5,132.167 64.5,132.5C 63.508,125.018 63.1746,117.352 63.5,109.5C 70.1667,109.5 76.8333,109.5 83.5,109.5 Z"/></g>
<g><path style="opacity:1" fill="#7b5cac" d="M 83.5,109.5 C 84.1667,109.5 84.8333,109.5 85.5,109.5C 85.7852,111.288 85.4519,112.955 84.5,114.5C 80.5,118.167 76.5,121.833 72.5,125.5C 70.585,127.071 69.585,129.071 69.5,131.5C 67.8333,131.5 66.1667,131.5 64.5,131.5C 64.5394,130.417 64.8728,129.417 65.5,128.5C 71.4938,122.173 77.4938,115.839 83.5,109.5 Z"/></g>
<g><path style="opacity:1" fill="#6b5fba" d="M 85.5,109.5 C 86.492,116.982 86.8254,124.648 86.5,132.5C 79.1667,132.5 71.8333,132.5 64.5,132.5C 64.5,132.167 64.5,131.833 64.5,131.5C 66.1667,131.5 67.8333,131.5 69.5,131.5C 69.585,129.071 70.585,127.071 72.5,125.5C 76.5,121.833 80.5,118.167 84.5,114.5C 85.4519,112.955 85.7852,111.288 85.5,109.5 Z"/></g>
<g><path style="opacity:1" fill="#436cdb" d="M 115.5,109.5 C 115.662,111.527 115.495,113.527 115,115.5C 110.158,120.542 105.324,125.542 100.5,130.5C 98.2573,131.474 95.924,131.808 93.5,131.5C 93.5,124.167 93.5,116.833 93.5,109.5C 100.833,109.5 108.167,109.5 115.5,109.5 Z"/></g>
<g><path style="opacity:1" fill="#0f73f1" d="M 115.5,109.5 C 116.492,116.982 116.825,124.648 116.5,132.5C 108.648,132.825 100.982,132.492 93.5,131.5C 95.924,131.808 98.2573,131.474 100.5,130.5C 105.324,125.542 110.158,120.542 115,115.5C 115.495,113.527 115.662,111.527 115.5,109.5 Z"/></g>
<g><path style="opacity:1" fill="#abcffb" d="M 63.5,141.5 C 63.5,145.833 63.5,150.167 63.5,154.5C 64.5,154.5 65.5,154.5 66.5,154.5C 66.5,153.167 66.5,151.833 66.5,150.5C 67.8333,150.5 69.1667,150.5 70.5,150.5C 69.791,151.404 68.791,151.737 67.5,151.5C 67.5,152.833 67.5,154.167 67.5,155.5C 65.8333,155.5 64.1667,155.5 62.5,155.5C 62.1805,150.637 62.5139,145.97 63.5,141.5 Z"/></g>
<g><path style="opacity:1" fill="#0374f3" d="M 75.5,141.5 C 76.5,141.5 77.5,141.5 78.5,141.5C 78.5,145.833 78.5,150.167 78.5,154.5C 77.5,154.5 76.5,154.5 75.5,154.5C 75.5,150.167 75.5,145.833 75.5,141.5 Z"/></g>
<g><path style="opacity:1" fill="#237cf4" d="M 93.5,141.5 C 96.5,141.5 99.5,141.5 102.5,141.5C 102.5,142.5 102.5,143.5 102.5,144.5C 100.712,144.215 99.0453,144.548 97.5,145.5C 98.6888,146.429 100.022,146.762 101.5,146.5C 101.5,147.5 101.5,148.5 101.5,149.5C 99.712,149.215 98.0453,149.548 96.5,150.5C 98.396,151.466 100.396,151.799 102.5,151.5C 102.5,152.833 102.5,154.167 102.5,155.5C 99.5,155.5 96.5,155.5 93.5,155.5C 93.5,150.833 93.5,146.167 93.5,141.5 Z"/></g>
<g><path style="opacity:1" fill="#a9cefb" d="M 104.5,141.5 C 104.5,145.833 104.5,150.167 104.5,154.5C 107.167,154.5 109.833,154.5 112.5,154.5C 109.713,155.477 106.713,155.81 103.5,155.5C 103.181,150.637 103.514,145.97 104.5,141.5 Z"/></g>
<g><path style="opacity:1" fill="#0873f3" d="M 104.5,141.5 C 103.514,145.97 103.181,150.637 103.5,155.5C 106.713,155.81 109.713,155.477 112.5,154.5C 109.833,154.5 107.167,154.5 104.5,154.5C 104.5,150.167 104.5,145.833 104.5,141.5 Z"/></g>
<g><path style="opacity:1" fill="#2f81f5" d="M 145.5,140.5 C 146.043,140.56 146.376,140.893 146.5,141.5C 143.45,145.363 141.616,149.696 141,154.5C 140.583,149.738 138.75,145.571 135.5,142C 137.829,142.993 139.663,144.827 141,147.5C 142.511,145.138 144.011,142.805 145.5,140.5 Z"/></g>
<g><path style="opacity:1" fill="#1177f4" d="M 63.5,141.5 C 67.0071,140.994 70.1737,141.66 73,143.5C 74.0874,146.614 73.254,148.947 70.5,150.5C 69.1667,150.5 67.8333,150.5 66.5,150.5C 66.5,151.833 66.5,153.167 66.5,154.5C 65.5,154.5 64.5,154.5 63.5,154.5C 63.5,150.167 63.5,145.833 63.5,141.5 Z"/></g>
<g><path style="opacity:1" fill="#e5f0fd" d="M 66.5,144.5 C 67.5,144.5 68.5,144.5 69.5,144.5C 69.5,145.5 69.5,146.5 69.5,147.5C 68.5,147.5 67.5,147.5 66.5,147.5C 66.5,146.5 66.5,145.5 66.5,144.5 Z"/></g>
<g><path style="opacity:1" fill="#92c0f9" d="M 75.5,141.5 C 75.5,145.833 75.5,150.167 75.5,154.5C 76.5,154.5 77.5,154.5 78.5,154.5C 77.4324,155.434 76.099,155.768 74.5,155.5C 74.1805,150.637 74.5139,145.97 75.5,141.5 Z"/></g>
<g><path style="opacity:1" fill="#217af4" d="M 80.5,142.5 C 82.9938,140.923 84.8271,141.59 86,144.5C 86.9492,141.8 88.7825,140.967 91.5,142C 90.2364,143.861 89.2364,145.861 88.5,148C 89.3632,150.227 90.3632,152.393 91.5,154.5C 90.635,155.583 89.635,155.749 88.5,155C 87.7894,153.745 86.956,152.579 86,151.5C 85.0813,154.644 83.2479,155.644 80.5,154.5C 84.3705,150.336 84.3705,146.336 80.5,142.5 Z"/></g>
<g><path style="opacity:1" fill="#267bf4" d="M 115.5,141.5 C 118.187,141.336 120.854,141.503 123.5,142C 125.993,148.68 123.659,151.18 116.5,149.5C 116.662,151.527 116.495,153.527 116,155.5C 115.501,150.845 115.334,146.179 115.5,141.5 Z"/></g>
<g><path style="opacity:1" fill="#eaf3fe" d="M 116.5,142.5 C 118.527,142.338 120.527,142.505 122.5,143C 123.833,144.667 123.833,146.333 122.5,148C 120.527,148.495 118.527,148.662 116.5,148.5C 116.5,146.5 116.5,144.5 116.5,142.5 Z"/></g>
<g><path style="opacity:1" fill="#3383f5" d="M 129.5,141.5 C 130.496,141.414 131.329,141.748 132,142.5C 133.691,146.841 135.024,151.174 136,155.5C 132.333,150.167 128.667,150.167 125,155.5C 126.162,150.814 127.662,146.147 129.5,141.5 Z"/></g>
<g><path style="opacity:1" fill="#eaf2fe" d="M 129.5,144.5 C 130.376,144.369 131.043,144.702 131.5,145.5C 132.074,147.059 132.74,148.559 133.5,150C 131.866,150.494 130.199,150.66 128.5,150.5C 128.517,148.435 128.85,146.435 129.5,144.5 Z"/></g>
</svg>
